<?xml version="1.0" encoding="UTF-8" standalone="no"?>
<!-- Created with Inkscape (http://www.inkscape.org/) -->

<svg
   xmlns:dc="http://purl.org/dc/elements/1.1/"
   xmlns:cc="http://creativecommons.org/ns#"
   xmlns:rdf="http://www.w3.org/1999/02/22-rdf-syntax-ns#"
   xmlns:svg="http://www.w3.org/2000/svg"
   xmlns="http://www.w3.org/2000/svg"
   xmlns:sodipodi="http://sodipodi.sourceforge.net/DTD/sodipodi-0.dtd"
   xmlns:inkscape="http://www.inkscape.org/namespaces/inkscape"
   width="210mm"
   height="297mm"
   viewBox="0 0 210 297"
   version="1.1"
   id="svg8"
   inkscape:version="0.92.5 (2060ec1f9f, 2020-04-08)"
   sodipodi:docname="standard-generator.svg">
  <defs
     id="defs2">
    <inkscape:perspective
       sodipodi:type="inkscape:persp3d"
       inkscape:vp_x="47.801155 : 297.7032 : 1"
       inkscape:vp_y="0 : 1000 : 0"
       inkscape:vp_z="223.28329 : 321.55702 : 1"
       inkscape:persp3d-origin="105 : 99 : 1"
       id="perspective864" />
  </defs>
  <sodipodi:namedview
     id="base"
     pagecolor="#ffffff"
     bordercolor="#666666"
     borderopacity="1.0"
     inkscape:pageopacity="0.0"
     inkscape:pageshadow="2"
     inkscape:zoom="4"
     inkscape:cx="268.25083"
     inkscape:cy="1025.5999"
     inkscape:document-units="mm"
     inkscape:current-layer="layer1"
     showgrid="false"
     inkscape:window-width="2560"
     inkscape:window-height="1391"
     inkscape:window-x="0"
     inkscape:window-y="25"
     inkscape:window-maximized="1"
     units="cm" />
  <metadata
     id="metadata5">
    <rdf:RDF>
      <cc:Work
         rdf:about="">
        <dc:format>image/svg+xml</dc:format>
        <dc:type
           rdf:resource="http://purl.org/dc/dcmitype/StillImage" />
        <dc:title></dc:title>
      </cc:Work>
    </rdf:RDF>
  </metadata>
  <g
     inkscape:label="Layer 1"
     inkscape:groupmode="layer"
     id="layer1">
    <path
       style="fill:none;stroke:#000000;stroke-width:0.26499999;stroke-linecap:butt;stroke-linejoin:miter;stroke-miterlimit:4;stroke-dasharray:0.26499999, 0.52999997;stroke-dashoffset:0;stroke-opacity:1"
       d="M 44.317708,32.284376 V 54.906251"
       id="path815"
       inkscape:connector-curvature="0" />
    <path
       style="fill:none;stroke:#000000;stroke-width:0.26499999;stroke-linecap:butt;stroke-linejoin:miter;stroke-miterlimit:4;stroke-dasharray:0.26499999, 0.52999997;stroke-dashoffset:0;stroke-opacity:1"
       d="M 66.939583,32.21823 V 54.840105"
       id="path815-3"
       inkscape:connector-curvature="0" />
    <path
       style="fill:none;stroke:#000000;stroke-width:0.26458332px;stroke-linecap:butt;stroke-linejoin:miter;stroke-opacity:1"
       d="m 44.582291,37.443751 c 0.736534,-0.521086 2.182961,-1.04176 3.175,-0.79375 0.766257,0.191563 1.536163,0.688443 2.248958,0.926042 2.005693,0.668565 4.910913,0.90955 7.14375,0.661458 3.421169,-0.38013 6.563934,-1.322917 9.921875,-1.322917"
       id="path838"
       inkscape:connector-curvature="0" />
    <path
       style="fill:none;stroke:#000000;stroke-width:0.26458332px;stroke-linecap:butt;stroke-linejoin:miter;stroke-opacity:1"
       d="m 44.317708,49.746876 c 2.404671,0.625623 4.10202,-0.661948 5.953125,-1.5875"
       id="path842"
       inkscape:connector-curvature="0" />
    <path
       style="fill:none;stroke:#000000;stroke-width:0.26458332px;stroke-linecap:butt;stroke-linejoin:miter;stroke-opacity:1"
       d="m 44.582291,44.322917 c 2.103406,-0.278881 4.595024,0.180846 6.35,1.058334 1.777333,0.888666 2.684554,2.024366 4.544689,2.954434 1.024583,0.512292 1.946116,1.039204 3.042708,1.5875 1.92383,0.961917 6.528914,0.264584 8.334375,0.264584"
       id="path844"
       inkscape:connector-curvature="0"
       sodipodi:nodetypes="csssc" />
    <path
       style="fill:none;stroke:#000000;stroke-width:0.26458332px;stroke-linecap:butt;stroke-linejoin:miter;stroke-opacity:1"
       d="m 54.107291,45.645834 c 0.639575,0.101092 1.141063,-0.119901 1.719792,-0.264583 1.507516,-0.376881 2.626743,-1.398474 4.233333,-1.719792 2.369378,-0.473877 5.158978,-0.264583 7.011458,-0.264583"
       id="path846"
       inkscape:connector-curvature="0" />
    <g
       sodipodi:type="inkscape:box3d"
       id="g916"
       style="opacity:1;fill:none;fill-opacity:1;stroke:#000000;stroke-width:0.2;stroke-miterlimit:4;stroke-dasharray:0.2,0.4;stroke-dashoffset:0;stroke-opacity:1"
       inkscape:perspectiveID="#perspective864"
       inkscape:corner0="0.52072913 : 0.17841164 : 0 : 1"
       inkscape:corner7="0.075689189 : 0.16416759 : 0.26060739 : 1">
      <path
         sodipodi:type="inkscape:box3dside"
         id="path918"
         style="fill:none;fill-opacity:1;fill-rule:evenodd;stroke:#000000;stroke-width:0.2;stroke-linejoin:round;stroke-miterlimit:4;stroke-dasharray:0.2,0.4;stroke-dashoffset:0;stroke-opacity:1"
         inkscape:box3dsidetype="6"
         d="M 85.413934,12.640118 V 22.00671 L 105.58406,15.194494 V 7.1982227 Z"
         points="85.413934,22.00671 105.58406,15.194494 105.58406,7.1982227 85.413934,12.640118 " />
      <path
         sodipodi:type="inkscape:box3dside"
         id="path926"
         style="fill:none;fill-opacity:1;fill-rule:evenodd;stroke:#000000;stroke-width:0.2;stroke-linejoin:round;stroke-miterlimit:4;stroke-dasharray:0.2,0.4;stroke-dashoffset:0;stroke-opacity:1"
         inkscape:box3dsidetype="13"
         d="m 85.413934,22.00671 15.561356,9.395663 23.85277,-10.913317 -19.244,-5.294562 z"
         points="100.97529,31.402373 124.82806,20.489056 105.58406,15.194494 85.413934,22.00671 " />
      <path
         sodipodi:type="inkscape:box3dside"
         id="path928"
         style="fill:none;fill-opacity:1;fill-rule:evenodd;stroke:#000000;stroke-width:0.2;stroke-linejoin:round;stroke-miterlimit:4;stroke-dasharray:0.2,0.4;stroke-dashoffset:0;stroke-opacity:1"
         inkscape:box3dsidetype="11"
         d="m 105.58406,7.1982227 19.244,2.6314854 V 20.489056 l -19.244,-5.294562 z"
         points="124.82806,9.8297081 124.82806,20.489056 105.58406,15.194494 105.58406,7.1982227 " />
      <path
         sodipodi:type="inkscape:box3dside"
         id="path920"
         style="fill:none;fill-opacity:1;fill-rule:evenodd;stroke:#000000;stroke-width:0.2;stroke-linejoin:round;stroke-miterlimit:4;stroke-dasharray:0.2,0.4;stroke-dashoffset:0;stroke-opacity:1"
         inkscape:box3dsidetype="5"
         d="m 85.413934,12.640118 15.561356,5.520466 23.85277,-8.3308759 -19.244,-2.6314854 z"
         points="100.97529,18.160584 124.82806,9.8297081 105.58406,7.1982227 85.413934,12.640118 " />
      <path
         sodipodi:type="inkscape:box3dside"
         id="path924"
         style="fill:none;fill-opacity:1;fill-rule:evenodd;stroke:#000000;stroke-width:0.2;stroke-linejoin:round;stroke-miterlimit:4;stroke-dasharray:0.2,0.4;stroke-dashoffset:0;stroke-opacity:1"
         inkscape:box3dsidetype="14"
         d="M 100.97529,18.160584 V 31.402373 L 124.82806,20.489056 V 9.8297081 Z"
         points="100.97529,31.402373 124.82806,20.489056 124.82806,9.8297081 100.97529,18.160584 " />
      <path
         sodipodi:type="inkscape:box3dside"
         id="path922"
         style="fill:none;fill-opacity:1;fill-rule:evenodd;stroke:#000000;stroke-width:0.2;stroke-linejoin:round;stroke-miterlimit:4;stroke-dasharray:0.2,0.4;stroke-dashoffset:0;stroke-opacity:1"
         inkscape:box3dsidetype="3"
         d="m 85.413934,12.640118 15.561356,5.520466 V 31.402373 L 85.413934,22.00671 Z"
         points="100.97529,18.160584 100.97529,31.402373 85.413934,22.00671 85.413934,12.640118 " />
    </g>
    <ellipse
       style="opacity:1;fill:#000000;fill-opacity:1;stroke:#000000;stroke-width:0.09606349;stroke-miterlimit:4;stroke-dasharray:0.0960635, 0.192127;stroke-dashoffset:0;stroke-opacity:1"
       id="path1060"
       cx="88.774727"
       cy="17.482752"
       rx="0.45754874"
       ry="0.54535884" />
    <ellipse
       style="opacity:1;fill:#000000;fill-opacity:1;stroke:#000000;stroke-width:0.09606349;stroke-miterlimit:4;stroke-dasharray:0.0960635, 0.192127;stroke-dashoffset:0;stroke-opacity:1"
       id="path1060-6"
       cx="93.216064"
       cy="20.253494"
       rx="0.45754874"
       ry="0.54535884" />
    <ellipse
       style="opacity:1;fill:#000000;fill-opacity:1;stroke:#000000;stroke-width:0.09606349;stroke-miterlimit:4;stroke-dasharray:0.0960635, 0.192127;stroke-dashoffset:0;stroke-opacity:1"
       id="path1060-6-7"
       cx="98.127144"
       cy="23.621092"
       rx="0.45754874"
       ry="0.54535884" />
    <path
       style="fill:none;stroke:#000000;stroke-width:0.26499999;stroke-linecap:butt;stroke-linejoin:miter;stroke-miterlimit:4;stroke-dasharray:0.26499999, 0.52999997;stroke-dashoffset:0;stroke-opacity:1"
       d="M 74.328901,44.237436 V 66.859311"
       id="path815-5"
       inkscape:connector-curvature="0" />
    <path
       style="fill:none;stroke:#000000;stroke-width:0.26499999;stroke-linecap:butt;stroke-linejoin:miter;stroke-miterlimit:4;stroke-dasharray:0.26499999, 0.52999997;stroke-dashoffset:0;stroke-opacity:1"
       d="M 96.950776,44.17129 V 66.793165"
       id="path815-3-3"
       inkscape:connector-curvature="0" />
    <path
       style="fill:none;stroke:#000000;stroke-width:0.26458332px;stroke-linecap:butt;stroke-linejoin:miter;stroke-opacity:1"
       d="m 74.593484,49.396811 c 0.736534,-0.521086 2.182961,-1.04176 3.175,-0.79375 0.766257,0.191563 1.536163,0.688443 2.248958,0.926042 2.005693,0.668565 4.910913,0.90955 7.14375,0.661458 3.421169,-0.38013 6.563934,-1.322917 9.921875,-1.322917"
       id="path838-5"
       inkscape:connector-curvature="0" />
    <path
       style="fill:none;stroke:#000000;stroke-width:0.26458332px;stroke-linecap:butt;stroke-linejoin:miter;stroke-opacity:1"
       d="m 74.328901,61.699936 c 2.404671,0.625623 4.10202,-0.661948 5.953125,-1.5875"
       id="path842-6"
       inkscape:connector-curvature="0" />
    <path
       style="fill:none;stroke:#000000;stroke-width:0.26458332px;stroke-linecap:butt;stroke-linejoin:miter;stroke-opacity:1"
       d="m 74.367744,55.93625 c 1.613532,0.04036 6.099053,2.03921 7.015826,3.414368 0.437174,0.655762 1.98532,2.699843 2.666013,3.04019 0.538811,0.269406 0.722316,0.20959 1.356392,0.42095 0.312473,0.104159 0.708097,0.120188 1.028989,0.280637 0.207438,0.103719 1.019156,0.140315 1.262848,0.140315"
       id="path1124"
       inkscape:connector-curvature="0"
       sodipodi:nodetypes="ccsccc" />
    <path
       style="fill:none;stroke:#000000;stroke-width:0.26458332px;stroke-linecap:butt;stroke-linejoin:miter;stroke-opacity:1"
       d="m 82.646418,59.210302 c 1.418937,-0.941975 4.748477,-1.320763 6.267472,-0.561266 0.759293,0.379648 1.240432,1.486474 1.683797,2.15152 0.460182,0.690274 1.238999,1.418447 1.917658,1.870885 0.533143,0.35543 1.053057,0.596688 1.637027,0.888672 0.378341,0.189171 0.990267,0.143002 1.403165,0.280632 0.449604,0.149868 0.949113,0.03022 1.356392,0.233863"
       id="path1126"
       inkscape:connector-curvature="0" />
    <path
       style="fill:none;stroke:#000000;stroke-width:0.26458332px;stroke-linecap:butt;stroke-linejoin:miter;stroke-opacity:1"
       d="m 87.697812,63.232709 c 0.945276,0.189474 1.781638,-0.09569 2.525696,-0.467722 0.280411,-0.140206 0.205462,-0.313206 0.514496,-0.467723"
       id="path1128"
       inkscape:connector-curvature="0" />
    <path
       style="fill:none;stroke:#000000;stroke-width:0.26458332px;stroke-linecap:butt;stroke-linejoin:miter;stroke-opacity:1"
       d="m 91.720219,61.221505 c -0.07381,-0.336237 0.253799,-0.414057 0.374176,-0.654812 0.646253,-1.292505 1.560116,-1.96443 3.086963,-1.96443 0.320381,0 0.710306,-0.04241 0.982215,0.09355 0.306224,0.153109 0.764559,-0.01529 1.075762,0.140316"
       id="path1130"
       inkscape:connector-curvature="0" />
    <ellipse
       style="opacity:1;fill:#000000;fill-opacity:1;stroke:#000000;stroke-width:0.09606349;stroke-miterlimit:4;stroke-dasharray:0.0960635, 0.192127;stroke-dashoffset:0;stroke-opacity:1"
       id="path1060-6-7-1"
       cx="114.07645"
       cy="13.190899"
       rx="0.45754874"
       ry="0.54535884" />
    <ellipse
       style="opacity:1;fill:#000000;fill-opacity:1;stroke:#000000;stroke-width:0.09606349;stroke-miterlimit:4;stroke-dasharray:0.0960635, 0.192127;stroke-dashoffset:0;stroke-opacity:1"
       id="path1060-6-7-1-2"
       cx="120.81164"
       cy="15.435963"
       rx="0.45754874"
       ry="0.54535884" />
    <ellipse
       style="opacity:1;fill:#000000;fill-opacity:1;stroke:#000000;stroke-width:0.09606349;stroke-miterlimit:4;stroke-dasharray:0.0960635, 0.192127;stroke-dashoffset:0;stroke-opacity:1"
       id="path1060-6-7-1-7"
       cx="108.55733"
       cy="11.553873"
       rx="0.45754874"
       ry="0.54535884" />
    <path
       style="fill:none;stroke:#000000;stroke-width:0.26458332px;stroke-linecap:butt;stroke-linejoin:miter;stroke-opacity:1"
       d="m 88.867116,17.489529 c 0.395415,-0.542712 1.315932,-0.751268 1.917658,-1.028988 0.860748,-0.397267 1.685348,-0.846714 2.57247,-1.169304 1.013346,-0.368489 2.180487,-0.375417 3.227279,-0.608038 2.736249,-0.608055 5.686787,-1.328251 8.465767,-1.637026 0.70643,-0.07849 1.71131,-0.528252 2.3386,-0.841899 0.3015,-0.15075 0.72914,-0.561266 1.07577,-0.561266"
       id="path1187"
       inkscape:connector-curvature="0" />
    <path
       style="fill:none;stroke:#000000;stroke-width:0.26458332px;stroke-linecap:butt;stroke-linejoin:miter;stroke-opacity:1"
       d="m 98.174777,23.429594 c 0.965832,-0.327911 1.790636,-0.825849 2.806333,-1.028988 1.05796,-0.211593 2.82582,-0.29038 3.74177,-0.748354 0.59763,-0.298815 1.32938,-0.664692 1.96443,-0.982216 0.3996,-0.199797 0.6634,-0.84285 0.93544,-1.169304 0.41062,-0.49274 1.04147,-0.907389 1.40317,-1.449937 0.8369,-1.255355 2.33113,-3.128747 3.60146,-3.975634 0.40145,-0.267637 0.79724,-0.795127 1.26285,-0.795127"
       id="path1189"
       inkscape:connector-curvature="0" />
    <path
       style="fill:none;stroke:#000000;stroke-width:0.26458332px;stroke-linecap:butt;stroke-linejoin:miter;stroke-opacity:1"
       d="m 93.170157,20.202314 c 1.90714,-0.162112 3.744822,-0.468484 5.612659,-0.935443 0.845735,-0.211434 1.787224,-0.131094 2.572474,-0.327405 0.44632,-0.111582 0.96966,0.09773 1.40316,-0.04677 0.85244,-0.284146 1.85067,-0.247138 2.66601,-0.654811 0.62161,-0.310804 1.47523,-0.129575 2.05798,-0.420949 0.58657,-0.293285 1.10197,-0.831621 1.6838,-1.122532 0.48551,-0.242758 1.15026,0.247726 1.49671,0.420949 0.23524,0.117622 0.28379,0.445918 0.51449,0.561267 0.21216,0.106079 0.63593,0.09354 0.88867,0.09354 1.41845,0 4.45512,-0.590533 5.61266,-1.169304 0.33786,-0.168932 1.79665,-0.387393 2.19829,-0.467722 0.52089,-0.104178 0.94054,-0.446882 1.35639,-0.65481"
       id="path1193"
       inkscape:connector-curvature="0" />
  </g>
</svg>
